<svg width="46" height="45" viewBox="0 0 46 45" fill="none" xmlns="http://www.w3.org/2000/svg">
<path d="M42.337 41.8593H1.57036C1.15388 41.8593 0.754448 42.0247 0.459948 42.3192C0.165448 42.6137 0 43.0131 0 43.4296C0 43.8461 0.165448 44.2455 0.459948 44.54C0.754448 44.8345 1.15388 45 1.57036 45H42.337C42.7535 45 43.1529 44.8345 43.4474 44.54C43.7419 44.2455 43.9073 43.8461 43.9073 43.4296C43.9073 43.0131 43.7419 42.6137 43.4474 42.3192C43.1529 42.0247 42.7535 41.8593 42.337 41.8593Z" fill="white"/>
<path d="M43.1118 1.95112C40.149 -1.01164 34.8621 -0.550996 31.3236 2.99802L10.197 24.1142C10.0006 24.3072 9.85955 24.5495 9.78867 24.8156L6.64794 36.4991C6.58129 36.7648 6.58483 37.0432 6.6582 37.3072C6.73158 37.5711 6.87227 37.8114 7.0665 38.0046C7.26072 38.1978 7.50181 38.3371 7.76613 38.4091C8.03045 38.481 8.30892 38.483 8.57425 38.4149L20.2473 35.2742C20.5137 35.2098 20.7567 35.072 20.9487 34.8764L39.1126 16.6916L42.0753 13.7288C45.2789 10.6719 46.3258 5.11278 43.1118 1.95112ZM19.0329 32.3115L10.3854 34.6461L12.72 26.0091L29.4705 9.25854L35.752 15.54L19.0329 32.3115ZM41.8973 7.45785C41.8031 9.74011 39.6256 11.813 38.0028 13.3624L31.7214 7.08097L33.564 5.22794C36.8198 1.78361 42.3999 2.66301 41.8973 7.45785Z" fill="white"/>
</svg>
