<svg width="47" height="47" viewBox="0 0 47 47" fill="none" xmlns="http://www.w3.org/2000/svg">
    <path
        d="M44.8464 6.24805C44.5159 6.24805 44.199 6.37933 43.9653 6.613C43.7316 6.84667 43.6003 7.1636 43.6003 7.49406V43.608H7.41003C7.07957 43.608 6.76264 43.7393 6.52897 43.9729C6.29529 44.2066 6.16402 44.5235 6.16402 44.854C6.16402 45.1845 6.29529 45.5014 6.52897 45.7351C6.76264 45.9687 7.07957 46.1 7.41003 46.1H44.8464C45.1768 46.1 45.4937 45.9687 45.7274 45.7351C45.9611 45.5014 46.0924 45.1845 46.0924 44.854V7.49406C46.0924 7.1636 45.9611 6.84667 45.7274 6.613C45.4937 6.37933 45.1768 6.24805 44.8464 6.24805Z"
        fill="black" stroke="black" stroke-width="0.2" />
    <path
        d="M40.5227 39.285V39.2844V2.14601C40.5227 1.81555 40.3915 1.49862 40.1578 1.26495C39.9241 1.03128 39.6072 0.9 39.2767 0.9H2.14601C1.81555 0.9 1.49862 1.03128 1.26495 1.26495C1.03128 1.49862 0.9 1.81555 0.9 2.14601V39.2767C0.9 39.6072 1.03128 39.9241 1.26495 40.1578C1.49862 40.3915 1.81555 40.5227 2.14601 40.5227H39.2767C39.6058 40.5228 39.9214 40.3926 40.1549 40.1607C40.3883 39.9289 40.5206 39.6141 40.5227 39.285ZM13.6163 17.4902L3.39202 24.8707V3.39966H38.0307V21.6847L29.0334 12.6874L29.0332 12.6872C28.7983 12.4535 28.4804 12.3222 28.149 12.3222C27.8176 12.3222 27.4997 12.4535 27.2648 12.6872L18.5462 21.3603L15.2777 17.6731L15.2777 17.673C15.0726 17.4421 14.7891 17.2955 14.4822 17.2618C14.1752 17.228 13.8666 17.3094 13.6163 17.4902ZM23.6467 30.8779L23.6468 30.878C23.8671 31.1258 24.1767 31.2759 24.5077 31.2954C24.8386 31.3148 25.1637 31.202 25.4115 30.9818C25.6593 30.7615 25.8094 30.4519 25.8289 30.1209C25.8484 29.79 25.7356 29.4649 25.5153 29.2171C25.5153 29.2171 25.5153 29.2171 25.5153 29.2171L20.2294 23.2138L28.1224 15.2757L38.0307 25.184V38.0308L3.39202 38.0383V27.9213L14.1566 20.1654L23.6467 30.8779Z"
        fill="black" stroke="black" stroke-width="0.2" />
    <path
        d="M10.7762 13.3011L10.7762 13.3013L10.7824 13.3011C15.8426 13.1442 15.8363 5.80907 10.7826 5.64453L10.7826 5.64432L10.7761 5.64453C5.75295 5.80909 5.7466 13.1442 10.7762 13.3011ZM10.7793 8.1365C11.1337 8.1365 11.4736 8.27729 11.7243 8.5279C11.9749 8.77851 12.1157 9.11841 12.1157 9.47283C12.1157 9.82725 11.9749 10.1671 11.7243 10.4178C11.4736 10.6684 11.1337 10.8092 10.7793 10.8092C10.4249 10.8092 10.085 10.6684 9.8344 10.4178C9.58379 10.1671 9.44299 9.82725 9.44299 9.47283C9.44299 9.11841 9.58379 8.77851 9.8344 8.5279C10.085 8.27729 10.4249 8.1365 10.7793 8.1365Z"
        fill="black" stroke="black" stroke-width="0.2" />
</svg>