<svg width="48" height="48" viewBox="0 0 48 48" fill="none" xmlns="http://www.w3.org/2000/svg">
<g filter="url(#filter0_d_39_189)">
<path d="M24.0017 2C18.57 2 17.8883 2.02375 15.755 2.12083C13.6258 2.21833 12.1725 2.55542 10.9008 3.05C9.58542 3.56083 8.46958 4.24417 7.35792 5.35625C6.24542 6.46792 5.56208 7.58375 5.04958 8.89875C4.55375 10.1708 4.21625 11.6246 4.12042 13.7529C4.025 15.8862 4 16.5683 4 22C4 27.4317 4.02417 28.1112 4.12083 30.2446C4.21875 32.3738 4.55583 33.8271 5.05 35.0987C5.56125 36.4142 6.24458 37.53 7.35667 38.6417C8.46792 39.7542 9.58375 40.4392 10.8983 40.95C12.1708 41.4446 13.6246 41.7817 15.7533 41.8792C17.8867 41.9762 18.5679 42 23.9992 42C29.4313 42 30.1108 41.9762 32.2442 41.8792C34.3733 41.7817 35.8283 41.4446 37.1008 40.95C38.4158 40.4392 39.53 39.7542 40.6413 38.6417C41.7538 37.53 42.4371 36.4142 42.9496 35.0992C43.4412 33.8271 43.7788 32.3733 43.8787 30.245C43.9746 28.1117 43.9996 27.4317 43.9996 22C43.9996 16.5683 43.9746 15.8867 43.8787 13.7533C43.7788 11.6242 43.4412 10.1708 42.9496 8.89917C42.4371 7.58375 41.7538 6.46792 40.6413 5.35625C39.5288 4.24375 38.4163 3.56042 37.0996 3.05C35.8246 2.55542 34.3704 2.21833 32.2413 2.12083C30.1079 2.02375 29.4288 2 23.9954 2H24.0017ZM22.2075 5.60417C22.74 5.60333 23.3342 5.60417 24.0017 5.60417C29.3417 5.60417 29.9746 5.62333 32.0833 5.71917C34.0333 5.80833 35.0917 6.13417 35.7967 6.40792C36.73 6.77042 37.3954 7.20375 38.095 7.90375C38.795 8.60375 39.2283 9.27042 39.5917 10.2037C39.8654 10.9079 40.1917 11.9662 40.2804 13.9162C40.3763 16.0246 40.3971 16.6579 40.3971 21.9954C40.3971 27.3329 40.3763 27.9662 40.2804 30.0746C40.1912 32.0246 39.8654 33.0829 39.5917 33.7871C39.2292 34.7204 38.795 35.385 38.095 36.0846C37.395 36.7846 36.7304 37.2179 35.7967 37.5804C35.0925 37.8554 34.0333 38.1804 32.0833 38.2696C29.975 38.3654 29.3417 38.3862 24.0017 38.3862C18.6612 38.3862 18.0283 38.3654 15.92 38.2696C13.97 38.1796 12.9117 37.8537 12.2063 37.58C11.2729 37.2175 10.6062 36.7842 9.90625 36.0842C9.20625 35.3842 8.77292 34.7192 8.40958 33.7854C8.13583 33.0813 7.80958 32.0229 7.72083 30.0729C7.625 27.9646 7.60583 27.3312 7.60583 21.9904C7.60583 16.6496 7.625 16.0196 7.72083 13.9113C7.81 11.9613 8.13583 10.9029 8.40958 10.1979C8.77208 9.26458 9.20625 8.59792 9.90625 7.89792C10.6062 7.19792 11.2729 6.76458 12.2063 6.40125C12.9113 6.12625 13.97 5.80125 15.92 5.71167C17.765 5.62833 18.48 5.60333 22.2075 5.59917V5.60417ZM34.6775 8.925C33.3525 8.925 32.2775 9.99875 32.2775 11.3242C32.2775 12.6492 33.3525 13.7242 34.6775 13.7242C36.0025 13.7242 37.0775 12.6492 37.0775 11.3242C37.0775 9.99917 36.0025 8.92417 34.6775 8.92417V8.925ZM24.0017 11.7292C18.3296 11.7292 13.7308 16.3279 13.7308 22C13.7308 27.6721 18.3296 32.2687 24.0017 32.2687C29.6737 32.2687 34.2708 27.6721 34.2708 22C34.2708 16.3279 29.6737 11.7292 24.0017 11.7292ZM24.0017 15.3333C27.6833 15.3333 30.6683 18.3179 30.6683 22C30.6683 25.6817 27.6833 28.6667 24.0017 28.6667C20.3196 28.6667 17.335 25.6817 17.335 22C17.335 18.3179 20.3196 15.3333 24.0017 15.3333Z" fill="white"/>
</g>
<defs>
<filter id="filter0_d_39_189" x="0" y="0" width="47.9995" height="48" filterUnits="userSpaceOnUse" color-interpolation-filters="sRGB">
<feFlood flood-opacity="0" result="BackgroundImageFix"/>
<feColorMatrix in="SourceAlpha" type="matrix" values="0 0 0 0 0 0 0 0 0 0 0 0 0 0 0 0 0 0 127 0" result="hardAlpha"/>
<feOffset dy="2"/>
<feGaussianBlur stdDeviation="2"/>
<feComposite in2="hardAlpha" operator="out"/>
<feColorMatrix type="matrix" values="0 0 0 0 0 0 0 0 0 0 0 0 0 0 0 0 0 0 0.25 0"/>
<feBlend mode="normal" in2="BackgroundImageFix" result="effect1_dropShadow_39_189"/>
<feBlend mode="normal" in="SourceGraphic" in2="effect1_dropShadow_39_189" result="shape"/>
</filter>
</defs>
</svg>
