<svg width="50" height="76" viewBox="0 0 50 76" fill="none" xmlns="http://www.w3.org/2000/svg">
<path d="M15.4458 19.8765L20.8333 14.4174V54.8898C20.8333 56.0096 21.2723 57.0835 22.0537 57.8752C22.8351 58.667 23.8949 59.1118 25 59.1118C26.1051 59.1118 27.1649 58.667 27.9463 57.8752C28.7277 57.0835 29.1667 56.0096 29.1667 54.8898V14.4174L34.5542 19.8765C35.34 20.6455 36.3925 21.0711 37.485 21.0615C38.5775 21.0519 39.6225 20.6078 40.3951 19.825C41.1676 19.0422 41.6058 17.9833 41.6153 16.8763C41.6248 15.7693 41.2048 14.7028 40.4458 13.9065L27.9458 1.24038C27.5588 0.847198 27.099 0.53525 26.5928 0.322405C26.0866 0.10956 25.5439 0 24.9958 0C24.4478 0 23.9051 0.10956 23.3989 0.322405C22.8927 0.53525 22.4329 0.847198 22.0458 1.24038L9.54583 13.9065C9.15898 14.299 8.85222 14.765 8.64307 15.2776C8.43391 15.7903 8.32646 16.3397 8.32685 16.8945C8.32763 18.0148 8.76761 19.089 9.55 19.8807C10.3324 20.6723 11.3931 21.1167 12.4988 21.1159C13.6045 21.1151 14.6645 20.6692 15.4458 19.8765Z" fill="black"/>
<path d="M45.8333 67.5559H4.16667C3.0616 67.5559 2.00179 68.0007 1.22039 68.7925C0.438988 69.5843 0 70.6582 0 71.778C0 72.8977 0.438988 73.9716 1.22039 74.7634C2.00179 75.5552 3.0616 76 4.16667 76H45.8333C46.9384 76 47.9982 75.5552 48.7796 74.7634C49.561 73.9716 50 72.8977 50 71.778C50 70.6582 49.561 69.5843 48.7796 68.7925C47.9982 68.0007 46.9384 67.5559 45.8333 67.5559Z" fill="black"/>
</svg>
