<svg width="37" height="45" viewBox="0 0 37 45" fill="none" xmlns="http://www.w3.org/2000/svg">
<path d="M18.0846 18.0028C23.0485 18.0028 27.079 13.9582 27.079 9.00849C27.079 4.05877 23.0485 0 18.0846 0C13.1208 0 9.09029 4.04463 9.09029 8.99434C9.09029 13.9441 13.1208 18.0028 18.0846 18.0028ZM18.0846 3.81835C20.9413 3.81835 23.2606 6.13765 23.2606 8.99434C23.2606 11.851 20.9413 14.1703 18.0846 14.1703C15.2279 14.1703 12.9086 11.851 12.9086 8.99434C12.9086 6.13765 15.2279 3.81835 18.0846 3.81835Z" fill="white"/>
<path d="M31.7176 28.9346C28.5639 24.296 23.9819 21.9343 18.0847 21.9343C12.1874 21.9343 7.60539 24.2819 4.45172 28.9346C2.10414 32.3853 0.60508 37.0946 0.0111137 42.8928C-0.102023 43.9394 0.661648 44.8869 1.70816 44.9859C2.75467 45.099 3.70219 44.3353 3.80118 43.2888C5.00326 31.6499 9.81155 25.7527 18.0847 25.7527C26.3577 25.7527 31.166 31.6499 32.3681 43.2888C32.4671 44.2646 33.3015 45 34.2632 45C34.3339 45 34.3904 45 34.4611 44.9859C35.5077 44.8727 36.2713 43.9394 36.1582 42.8928C35.5642 37.0805 34.0652 32.3853 31.7176 28.9346Z" fill="white"/>
</svg>
