<svg width="40" height="40" viewBox="0 0 40 40" fill="none" xmlns="http://www.w3.org/2000/svg">
<path fill-rule="evenodd" clip-rule="evenodd" d="M2.81306 29.7292L0 40L10.5107 37.2438C13.4067 38.8229 16.6671 39.6553 19.9852 39.6567H19.9938C30.9213 39.6567 39.8165 30.764 39.8213 19.8359C39.8232 14.5396 37.7633 9.55968 34.0195 5.81315C30.2757 2.06661 25.2976 0.00269476 19.9941 0C9.06492 0 0.171118 8.8911 0.166536 19.82C0.162338 23.2983 1.07519 26.7162 2.81306 29.7292ZM3.51393 19.8213C3.51717 10.7381 10.9097 3.34825 20 3.34825C22.1649 3.34312 24.3094 3.76748 26.3093 4.59675C28.3092 5.42603 30.1247 6.64375 31.6508 8.17942C33.1854 9.70673 34.4017 11.5233 35.2295 13.5239C36.0572 15.5245 36.4799 17.6695 36.473 19.8345C36.4695 28.9183 29.077 36.309 19.9938 36.309H19.9876C17.0298 36.3074 14.1294 35.5135 11.5998 34.0122L10.9976 33.6554L4.76026 35.2909L6.42536 29.2121L6.03327 28.5888C4.38289 25.9626 3.50946 22.923 3.51393 19.8213Z" fill="white"/>
<path fill-rule="evenodd" clip-rule="evenodd" d="M15.0384 11.5339C14.667 10.709 14.2763 10.6923 13.9235 10.678L12.9739 10.6664C12.6435 10.6664 12.1067 10.7904 11.6529 11.2862C11.1991 11.782 9.91885 12.9804 9.91885 15.4178C9.91885 17.8552 11.6942 20.2105 11.9415 20.5414C12.1889 20.8723 15.3687 26.0336 20.4044 28.0193C24.5891 29.6696 25.4407 29.3414 26.3494 29.2589C27.258 29.1765 29.2805 28.0606 29.693 26.9037C30.1056 25.7468 30.1059 24.7557 29.9822 24.5485C29.8585 24.3413 29.5281 24.2181 29.0323 23.9702C28.5364 23.7223 26.1012 22.5239 25.6471 22.3584C25.193 22.193 24.8629 22.1108 24.5323 22.6066C24.2016 23.1025 23.2534 24.2178 22.9642 24.5485C22.6751 24.8791 22.3864 24.9206 21.8906 24.673C21.3948 24.4253 19.7995 23.902 17.9067 22.2143C16.434 20.9011 15.4399 19.2794 15.1505 18.7838C14.861 18.2883 15.1197 18.0199 15.3682 17.773C15.5905 17.551 15.8635 17.1945 16.1117 16.9053C16.3599 16.6162 16.4415 16.4095 16.6064 16.0794C16.7714 15.7493 16.6892 15.4593 16.5652 15.2117C16.4413 14.964 15.4787 12.5137 15.0384 11.5339Z" fill="white"/>
</svg>
